<svg id="Group_2_copy" data-name="Group 2 copy" xmlns="http://www.w3.org/2000/svg" width="287" height="57" viewBox="0 0 287 57">
  <defs>
    <style>
      .cls-1 {
        fill: #fff;
      }

      .cls-1, .cls-2 {
        fill-rule: evenodd;
      }

      .cls-2 {
        fill: red;
      }
    </style>
  </defs>
  <path class="cls-1" d="M15.9,33.271a45.581,45.581,0,0,1,5.183,2.591,13.159,13.159,0,0,1,3.793,3.23A7.2,7.2,0,0,1,26.3,43.636a6.406,6.406,0,0,1-1.089,3.793,6.7,6.7,0,0,1-3,2.329,11.464,11.464,0,0,1-4.394.789,14.468,14.468,0,0,1-6.2-1.465,17.726,17.726,0,0,1-6.009-4.995c-0.15-.184-0.3-0.374-0.449-0.568a27.833,27.833,0,0,1-3.868-20.5A14.293,14.293,0,0,0,5.083,27.45a30.038,30.038,0,0,0,5.183,3.23Q13.082,32.07,15.9,33.271Z"/>
  <path id="Ellipse_1_copy_2" data-name="Ellipse 1 copy 2" class="cls-2" d="M28.517,56.267a27.657,27.657,0,0,1-12.009-2.724c0.234,0,.467.009,0.706,0.009a25.684,25.684,0,0,0,10.14-1.8,14.279,14.279,0,0,0,6.46-5.183,14.149,14.149,0,0,0,2.253-8.037,13.55,13.55,0,0,0-5.22-11.267,30.5,30.5,0,0,0-5.183-3.3q-2.817-1.426-5.633-2.629a49.836,49.836,0,0,1-5.183-2.554,12.647,12.647,0,0,1-3.793-3.192,7.066,7.066,0,0,1-1.517-4.447,5.878,5.878,0,0,1,1.867-4.5A27.767,27.767,0,1,1,28.517,56.267ZM27.535,3.43a6.842,6.842,0,1,0,6.843,6.843A6.843,6.843,0,0,0,27.535,3.43Z"/>
  <path id="Shinvitha" class="cls-1" d="M286.486,47.455a1.467,1.467,0,0,1-.66.907,3.046,3.046,0,0,1-1.54.3,2.586,2.586,0,0,1-1.76-.495,2.127,2.127,0,0,1-.605-1.54l0.22-2.75a11.4,11.4,0,0,1-1.705,2.007,10.447,10.447,0,0,1-3.052,1.98,11.019,11.019,0,0,1-4.538.852,11.687,11.687,0,0,1-4.922-1.045,12.529,12.529,0,0,1-4.015-2.915,14.106,14.106,0,0,1-2.723-4.29,13.517,13.517,0,0,1-.99-5.17,13.32,13.32,0,0,1,7.783-12.155,11.558,11.558,0,0,1,4.867-1.045,11.918,11.918,0,0,1,4.125.633,10.168,10.168,0,0,1,2.943,1.65,12.841,12.841,0,0,1,2.172,2.282l-0.165-2.31a2.244,2.244,0,0,1,.578-1.733,3.563,3.563,0,0,1,3.355-.192,1.628,1.628,0,0,1,.632.935,5.733,5.733,0,0,1,.165,1.485V46.08A5.23,5.23,0,0,1,286.486,47.455Zm-5.912-16.637a8.345,8.345,0,0,0-2.97-3.052,7.849,7.849,0,0,0-4.1-1.1,8.169,8.169,0,0,0-7.425,4.29,9.124,9.124,0,0,0-1.1,4.51,8.854,8.854,0,0,0,1.1,4.428,8.064,8.064,0,0,0,3.053,3.08,8.793,8.793,0,0,0,4.482,1.128,7.422,7.422,0,0,0,4.07-1.155,8.642,8.642,0,0,0,2.915-3.108,8.975,8.975,0,0,0,1.1-4.483A8.92,8.92,0,0,0,280.574,30.817Zm-24.613,17.6a3.187,3.187,0,0,1-1.595.3,3.351,3.351,0,0,1-1.622-.3,1.438,1.438,0,0,1-.688-0.88,4.924,4.924,0,0,1-.165-1.348V34.255a9.69,9.69,0,0,0-.77-4.015,5.86,5.86,0,0,0-2.282-2.64,7.164,7.164,0,0,0-3.823-.935,7.445,7.445,0,0,0-5.142,1.788,7.176,7.176,0,0,0-2.338,4.758V46.245a4.624,4.624,0,0,1-.165,1.32,1.437,1.437,0,0,1-.687.852,4.5,4.5,0,0,1-3.245,0,1.335,1.335,0,0,1-.66-0.88,5.838,5.838,0,0,1-.138-1.348V12.31a4.634,4.634,0,0,1,.165-1.32,1.438,1.438,0,0,1,.688-0.852,4.5,4.5,0,0,1,3.245,0,1.336,1.336,0,0,1,.66.852,5.825,5.825,0,0,1,.137,1.375V25.95a14.4,14.4,0,0,1,3.218-2.75,8.474,8.474,0,0,1,4.647-1.21,11.187,11.187,0,0,1,5.8,1.512,11,11,0,0,1,4.07,4.263,13.389,13.389,0,0,1,1.512,6.545V46.245a4.624,4.624,0,0,1-.165,1.32A1.46,1.46,0,0,1,255.961,48.417ZM226.866,27.27a4.634,4.634,0,0,1-1.32.165l-5.28-.077V39.81a8.459,8.459,0,0,0,.248,2.282,2.564,2.564,0,0,0,.77,1.292,2.623,2.623,0,0,0,1.4.55,17.529,17.529,0,0,0,2.145.11,5.107,5.107,0,0,1,1.43.165,1.357,1.357,0,0,1,.825.66,3.148,3.148,0,0,1,.275,1.485,3.21,3.21,0,0,1-.3,1.568,1.34,1.34,0,0,1-.88.66,5.631,5.631,0,0,1-1.293.138,16.921,16.921,0,0,1-4.4-.495,6.914,6.914,0,0,1-2.942-1.54,5.885,5.885,0,0,1-1.623-2.723,14.882,14.882,0,0,1-.5-4.152V27.376l-2.97.059a1.981,1.981,0,0,1-1.567-.605,3.078,3.078,0,0,1-.413-1.815,2.59,2.59,0,0,1,.5-1.76,2.051,2.051,0,0,1,1.595-.55l2.86,0.03v-7.18a4.864,4.864,0,0,1,.165-1.375,1.464,1.464,0,0,1,.66-0.853,3.044,3.044,0,0,1,1.54-.3,3.386,3.386,0,0,1,1.595.3,1.424,1.424,0,0,1,.715.853,4.414,4.414,0,0,1,.165,1.265v7.28l5.225-.075a5.545,5.545,0,0,1,1.32.137,1.337,1.337,0,0,1,.853.66,3.216,3.216,0,0,1,.3,1.568,3.481,3.481,0,0,1-.275,1.567A1.337,1.337,0,0,1,226.866,27.27Zm-21.285-12.1a3.908,3.908,0,0,1-1.815.33,3.637,3.637,0,0,1-1.815-.357,1.693,1.693,0,0,1-.8-1.018,5.5,5.5,0,0,1-.193-1.54,5.212,5.212,0,0,1,.193-1.512,1.487,1.487,0,0,1,.825-0.935,4.415,4.415,0,0,1,1.842-.3,3.756,3.756,0,0,1,1.76.33,1.6,1.6,0,0,1,.8.99,5.769,5.769,0,0,1,.192,1.595,5.022,5.022,0,0,1-.192,1.458A1.6,1.6,0,0,1,205.581,15.17ZM185.286,47.51a1.945,1.945,0,0,1-.88.99,3.329,3.329,0,0,1-1.595.33,3.735,3.735,0,0,1-1.54-.275,1.9,1.9,0,0,1-.935-0.99L170.161,25.4a2.467,2.467,0,0,1-.275-2.008,3.223,3.223,0,0,1,1.54-1.293,2.766,2.766,0,0,1,1.87-.357,2.276,2.276,0,0,1,1.32,1.512l8.195,19.47,8.03-18.975a4.367,4.367,0,0,1,1.293-1.815q0.743-.549,2.282.22,1.485,0.716,1.485,1.623a4.584,4.584,0,0,1-.5,1.953Zm-19.442.88a3.647,3.647,0,0,1-1.623.275,3.379,3.379,0,0,1-1.595-.3,1.311,1.311,0,0,1-.687-0.852,5.48,5.48,0,0,1-.138-1.32V34.255a9.406,9.406,0,0,0-.8-4.015,6.028,6.028,0,0,0-2.31-2.64,7.281,7.281,0,0,0-3.878-.935,7.946,7.946,0,0,0-3.932.935,6.409,6.409,0,0,0-2.585,2.64,8.428,8.428,0,0,0-.908,4.015v11.99a4.624,4.624,0,0,1-.165,1.32,1.337,1.337,0,0,1-.687.825,3.487,3.487,0,0,1-1.568.275,3.206,3.206,0,0,1-1.567-.3,1.325,1.325,0,0,1-.66-0.852,5.48,5.48,0,0,1-.138-1.32V24.355a4.569,4.569,0,0,1,.138-1.21,1.225,1.225,0,0,1,.687-0.77,3.668,3.668,0,0,1,1.595-.275,3.5,3.5,0,0,1,1.293.193,1.309,1.309,0,0,1,.66.522,1.969,1.969,0,0,1,.247.715,5.183,5.183,0,0,1,.055.715l-0.11,2.53a9.512,9.512,0,0,1,1.375-1.787,10.158,10.158,0,0,1,1.925-1.54,9.6,9.6,0,0,1,5.17-1.457,11.424,11.424,0,0,1,4.455.852,9.669,9.669,0,0,1,3.493,2.475,11.45,11.45,0,0,1,2.255,3.878,15.308,15.308,0,0,1,.8,5.115V46.245a5.536,5.536,0,0,1-.137,1.32A1.243,1.243,0,0,1,165.844,48.39Zm-31.1-33.22a3.908,3.908,0,0,1-1.815.33,3.637,3.637,0,0,1-1.815-.357,1.693,1.693,0,0,1-.8-1.018,5.5,5.5,0,0,1-.193-1.54,5.212,5.212,0,0,1,.193-1.512,1.487,1.487,0,0,1,.825-0.935,4.415,4.415,0,0,1,1.842-.3,3.756,3.756,0,0,1,1.76.33,1.6,1.6,0,0,1,.8.99,5.769,5.769,0,0,1,.192,1.595,5.022,5.022,0,0,1-.192,1.458A1.6,1.6,0,0,1,134.741,15.17Zm-11,33.247a3.187,3.187,0,0,1-1.595.3,3.351,3.351,0,0,1-1.622-.3,1.438,1.438,0,0,1-.688-0.88,4.924,4.924,0,0,1-.165-1.348V34.255a9.69,9.69,0,0,0-.77-4.015,5.86,5.86,0,0,0-2.282-2.64,7.164,7.164,0,0,0-3.823-.935,7.445,7.445,0,0,0-5.142,1.788,7.176,7.176,0,0,0-2.338,4.758V46.245a4.624,4.624,0,0,1-.165,1.32,1.437,1.437,0,0,1-.687.852,4.5,4.5,0,0,1-3.245,0,1.335,1.335,0,0,1-.66-0.88,5.838,5.838,0,0,1-.138-1.348V12.31a4.634,4.634,0,0,1,.165-1.32,1.438,1.438,0,0,1,.688-0.852,4.5,4.5,0,0,1,3.245,0,1.336,1.336,0,0,1,.66.852,5.825,5.825,0,0,1,.137,1.375V25.95a14.4,14.4,0,0,1,3.218-2.75,8.474,8.474,0,0,1,4.647-1.21,11.187,11.187,0,0,1,5.8,1.512,11,11,0,0,1,4.07,4.263,13.389,13.389,0,0,1,1.512,6.545V46.245a4.624,4.624,0,0,1-.165,1.32A1.46,1.46,0,0,1,123.741,48.417Zm-32.67-1.98a13.446,13.446,0,0,1-4.263,2.117,17.5,17.5,0,0,1-5.032.715,15.1,15.1,0,0,1-3.933-.495,14.377,14.377,0,0,1-3.355-1.347,15.6,15.6,0,0,1-2.695-1.9,9.874,9.874,0,0,1-1.843-2.09,7.223,7.223,0,0,1-.743-1.457,1.5,1.5,0,0,1,.055-1.128,3.617,3.617,0,0,1,1.073-1.21,2.533,2.533,0,0,1,1.54-.633,2.008,2.008,0,0,1,1.237.523,7.869,7.869,0,0,1,1.183,1.32,8.1,8.1,0,0,0,3.355,2.723,9.809,9.809,0,0,0,3.905.852,13.54,13.54,0,0,0,4.4-.66,6.706,6.706,0,0,0,3.053-2.008,5.262,5.262,0,0,0,1.127-3.492,4.919,4.919,0,0,0-.88-2.97,7.18,7.18,0,0,0-2.365-2.035,21.08,21.08,0,0,0-3.3-1.458q-1.815-.631-3.74-1.292-1.431-.5-2.888-1.1a15.644,15.644,0,0,1-2.7-1.43,11.022,11.022,0,0,1-2.2-1.925,8.192,8.192,0,0,1-1.513-2.585,9.951,9.951,0,0,1-.55-3.465A9.515,9.515,0,0,1,71.491,14.7a10.287,10.287,0,0,1,4.125-3.6,13.349,13.349,0,0,1,6.05-1.32,17.3,17.3,0,0,1,3.8.385,14.337,14.337,0,0,1,3.025,1.018,14.167,14.167,0,0,1,2.255,1.32,7.945,7.945,0,0,1,1.43,1.293,3.733,3.733,0,0,1,1.1,1.76,2.367,2.367,0,0,1-.825,1.76,2.838,2.838,0,0,1-1.733,1.045,2.633,2.633,0,0,1-1.788-.77,8.8,8.8,0,0,0-2.172-1.87,7.613,7.613,0,0,0-2.365-.908,14.225,14.225,0,0,0-2.778-.247A9.379,9.379,0,0,0,79,14.922a6.23,6.23,0,0,0-2.145,1.072,4.932,4.932,0,0,0-1.4,1.733,5.281,5.281,0,0,0-.5,2.337,4.132,4.132,0,0,0,.8,2.585,6.5,6.5,0,0,0,2.118,1.76,20.318,20.318,0,0,0,2.97,1.293q1.65,0.577,3.465,1.127a34.86,34.86,0,0,1,3.905,1.457,15.593,15.593,0,0,1,3.465,2.09,9.225,9.225,0,0,1,2.475,3.108,10.275,10.275,0,0,1,.935,4.62,10.455,10.455,0,0,1-1.073,4.84A10.036,10.036,0,0,1,91.071,46.437Zm40.288-24.062a3.638,3.638,0,0,1,1.622-.275,3.047,3.047,0,0,1,1.54.3,1.465,1.465,0,0,1,.66.88,4.929,4.929,0,0,1,.165,1.348V46.3a4.624,4.624,0,0,1-.165,1.32,1.337,1.337,0,0,1-.687.825,3.487,3.487,0,0,1-1.568.275,3.379,3.379,0,0,1-1.595-.3,1.313,1.313,0,0,1-.687-0.852,5.48,5.48,0,0,1-.138-1.32V24.52a4.7,4.7,0,0,1,.165-1.293A1.34,1.34,0,0,1,131.359,22.375Zm70.84,0a3.638,3.638,0,0,1,1.622-.275,3.047,3.047,0,0,1,1.54.3,1.465,1.465,0,0,1,.66.88,4.929,4.929,0,0,1,.165,1.348V46.3a4.624,4.624,0,0,1-.165,1.32,1.337,1.337,0,0,1-.687.825,3.487,3.487,0,0,1-1.568.275,3.379,3.379,0,0,1-1.595-.3,1.313,1.313,0,0,1-.687-0.852,5.48,5.48,0,0,1-.138-1.32V24.52a4.7,4.7,0,0,1,.165-1.293A1.34,1.34,0,0,1,202.2,22.375Z"/>
</svg>
